<svg width="19" height="22" viewBox="0 0 19 22" fill="none" xmlns="http://www.w3.org/2000/svg">
<path d="M18.4763 15.1893C18.3948 15.0911 18.3147 14.9929 18.2361 14.8981C17.1558 13.5914 16.5022 12.8027 16.5022 9.10348C16.5022 7.1883 16.044 5.61687 15.1409 4.4383C14.475 3.56763 13.5749 2.90714 12.3885 2.41902C12.3732 2.41053 12.3596 2.39938 12.3482 2.38612C11.9215 0.957098 10.7537 0 9.43664 0C8.11959 0 6.95231 0.957098 6.52557 2.38464C6.51418 2.39742 6.50074 2.40821 6.4858 2.41656C3.71714 3.55634 2.3716 5.74308 2.3716 9.10201C2.3716 12.8027 1.71897 13.5914 0.637628 14.8967C0.559057 14.9914 0.479012 15.0877 0.397494 15.1879C0.186923 15.4418 0.0535094 15.7508 0.0130414 16.0782C-0.0274266 16.4056 0.0267453 16.7377 0.169146 17.0353C0.472137 17.6737 1.1179 18.07 1.85499 18.07H17.0237C17.7574 18.07 18.3987 17.6742 18.7027 17.0387C18.8457 16.7411 18.9004 16.4086 18.8602 16.0809C18.8201 15.7531 18.6869 15.4437 18.4763 15.1893ZM9.43664 22C10.1463 21.9994 10.8425 21.8068 11.4515 21.4426C12.0605 21.0783 12.5596 20.556 12.8957 19.9311C12.9116 19.9012 12.9194 19.8676 12.9185 19.8338C12.9175 19.7999 12.9078 19.7669 12.8903 19.7378C12.8728 19.7088 12.8481 19.6848 12.8186 19.6682C12.7891 19.6516 12.7558 19.6428 12.7219 19.6429H6.15236C6.11844 19.6427 6.08506 19.6514 6.05549 19.668C6.02591 19.6846 6.00114 19.7086 5.98359 19.7376C5.96603 19.7667 5.9563 19.7997 5.95532 19.8336C5.95435 19.8675 5.96217 19.9011 5.97803 19.9311C6.31418 20.556 6.81317 21.0782 7.42208 21.4424C8.03098 21.8067 8.72711 21.9993 9.43664 22Z" fill="white"/>
</svg>
